<svg width="120" height="156" viewBox="0 0 120 156" fill="none" xmlns="http://www.w3.org/2000/svg">
<path d="M118.662 1.19092C119.288 1.88678 119.725 2.82771 119.906 3.87315C120.088 4.91859 120.004 6.01242 119.669 6.99124C107.996 41.0582 83.4818 88.1362 65.5369 112.668C60.5072 119.531 54.3039 124.751 47.4318 127.904C47.2945 130.159 46.974 133.248 46.2111 136.525C44.6775 143.07 41.1221 151.215 33.1797 153.807C25.4878 156.191 17.5162 156.636 9.69574 155.118C8.24153 154.819 6.80778 154.371 5.40789 153.777C4.11277 153.264 2.90566 152.431 1.85249 151.324C1.15798 150.555 0.622814 149.571 0.29605 148.463C-0.108943 147.042 -0.0980807 145.476 0.326569 144.064C1.05138 141.63 2.73753 140.289 3.84382 139.574C6.84989 137.618 8.61233 135.075 10.4587 131.37C11.1835 129.94 11.8625 128.421 12.6484 126.682L13.5411 124.716C14.6931 122.183 16.0283 119.353 17.7068 116.294C21.7353 108.954 26.87 107.106 31.0281 107.394C31.9895 107.464 32.8821 107.643 33.6833 107.871C34.1563 106.163 34.7667 104.097 35.4991 101.832C37.4904 95.6845 40.5194 87.7389 44.5555 81.283C61.1575 54.7644 91.7065 19.6447 114.115 0.793638C114.805 0.213998 115.62 -0.0604244 116.439 0.0111502C117.258 0.0827249 118.038 0.496477 118.662 1.19092ZM33.8206 118.31C32.8082 117.736 31.726 117.4 30.6238 117.317C28.7469 117.187 26.252 117.813 23.9173 122.074C22.4143 124.805 21.2088 127.358 20.1025 129.791L19.3014 131.549C18.4927 133.347 17.6763 135.145 16.8599 136.793C15.3148 140.052 13.3538 142.944 11.0614 145.345C16.3259 146.457 24.3065 146.447 31.3333 144.153C35.5983 142.772 37.7651 138.502 38.9095 133.625C39.462 131.202 39.7848 128.701 39.8709 126.176L33.8206 118.31ZM44.8072 118.568C45.7228 118.171 46.9206 117.575 48.3016 116.75C52.6968 114.096 56.6695 110.39 60.0131 105.825C74.5093 86.0008 93.6749 50.5036 106.188 20.1016C86.4268 39.2406 63.7211 66.3849 50.476 87.5601C47.1037 92.9532 44.4105 99.9056 42.526 105.696C41.6028 108.556 40.8932 111.059 40.4278 112.847V112.857L44.8149 118.568H44.8072ZM6.86515 148.761L6.91856 148.712C6.90216 148.728 6.88421 148.741 6.86515 148.752V148.761ZM34.1944 118.538L34.2097 118.548H34.1944V118.538Z" fill="#8D9DB9"/>
</svg>
