<svg width="156" height="156" viewBox="0 0 156 156" fill="none" xmlns="http://www.w3.org/2000/svg">
<path d="M19.2808 61.5469C18.4587 61.5543 17.6493 61.3441 16.9347 60.9375C16.4106 60.6429 15.9505 60.2467 15.5813 59.7722C15.2122 59.2976 14.9414 58.7542 14.7848 58.1737C14.6281 57.5932 14.5889 56.9873 14.6692 56.3915C14.7496 55.7957 14.948 55.2218 15.2528 54.7036C21.1272 44.8988 39.0002 22.0137 78.0002 22.0137C94.9012 22.0137 109.724 26.453 122.037 35.2036C132.171 42.3851 137.85 50.5141 140.556 54.4294C140.899 54.9229 141.14 55.4801 141.264 56.0681C141.389 56.6561 141.394 57.2631 141.281 57.8534C141.167 58.4437 140.937 59.0052 140.603 59.5051C140.269 60.0049 139.839 60.4329 139.337 60.7638C138.311 61.4417 137.062 61.6936 135.854 61.4661C134.646 61.2386 133.574 60.5496 132.865 59.5451C127.969 52.5038 113.039 31.0781 78.0002 31.0781C43.799 31.0781 28.3361 50.7945 23.2996 59.2495C22.8949 59.9556 22.3091 60.5408 21.6026 60.9447C20.8961 61.3485 20.0945 61.5564 19.2808 61.5469Z" fill="#8D9DB9"/>
<path d="M97.6493 151.125C97.2604 151.13 96.8725 151.086 96.4946 150.994C68.2043 143.986 57.6408 115.705 57.2112 114.529L57.1442 114.27C56.9126 113.454 51.2363 94.0603 59.9503 82.7015C63.9448 77.5218 70.0203 74.8649 78.0427 74.8649C85.5014 74.8649 90.8822 77.1836 94.5811 81.9824C97.628 85.9007 98.8468 90.7331 100.026 95.3887C102.503 105.084 104.292 110.175 114.587 110.699C119.108 110.928 122.079 108.283 123.764 106.031C128.319 99.892 129.111 89.883 125.678 81.0471C121.266 69.6426 105.608 48.1408 78 48.1408C66.2147 48.1408 55.3861 51.9281 46.7025 59.0456C39.515 64.9413 33.8203 73.2653 31.0782 81.821C25.9929 97.75 32.6625 122.789 32.7265 123.018C32.8822 123.601 32.9197 124.209 32.8367 124.806C32.7537 125.403 32.5519 125.978 32.2433 126.497C31.9346 127.015 31.5253 127.466 31.0395 127.823C30.5536 128.181 30.0011 128.438 29.4146 128.578C28.2295 128.893 26.9682 128.732 25.9009 128.128C24.8336 127.524 24.0452 126.527 23.7047 125.349C23.4 124.206 16.2764 97.5002 22.1508 79.091C28.5493 59.1431 48.296 39.0337 78.0092 39.0337C91.7414 39.0337 104.715 43.7015 115.544 52.5161C123.929 59.3716 130.778 68.5792 134.361 77.7838C138.916 89.5356 137.694 102.726 131.256 111.342C126.966 117.089 120.857 120.093 114.09 119.767C96.461 118.883 93.2923 106.577 90.9828 97.6007C88.6062 88.3931 87.0858 83.9538 78.0092 83.9538C73.0245 83.9538 69.5236 85.3249 67.3451 88.1645C64.3744 92.0493 64.1428 98.1217 64.4719 102.528C64.6879 105.597 65.2084 108.638 66.0258 111.604C66.751 113.432 76.1932 136.589 98.8071 142.192C99.3916 142.33 99.9428 142.583 100.429 142.937C100.914 143.29 101.325 143.736 101.637 144.25C101.949 144.763 102.155 145.333 102.245 145.927C102.335 146.521 102.305 147.127 102.159 147.71C101.883 148.693 101.293 149.559 100.478 150.176C99.6643 150.793 98.6707 151.126 97.6493 151.125V151.125Z" fill="#8D9DB9"/>
<path d="M61.3365 149.035C60.7024 149.036 60.0745 148.91 59.4904 148.663C58.9062 148.417 58.3776 148.055 57.9362 147.6C46.614 135.717 40.2095 122.43 37.7994 105.815V105.727C36.4466 94.7276 38.4271 79.155 48.1313 68.4483C55.2946 60.5478 65.3645 56.532 78.009 56.532C92.9631 56.532 104.715 63.485 112.043 76.6078C117.359 86.1415 118.414 95.6417 118.441 96.0317C118.497 96.633 118.433 97.2394 118.254 97.8162C118.075 98.3929 117.784 98.9287 117.398 99.3929C117.012 99.8571 116.538 100.24 116.003 100.521C115.468 100.802 114.883 100.974 114.282 101.029C113.069 101.16 111.852 100.809 110.895 100.052C109.938 99.2942 109.317 98.1906 109.166 96.9793C108.364 91.279 106.519 85.7751 103.725 80.7425C98.0453 70.7213 89.4043 65.6269 77.9755 65.6269C68.1036 65.6269 60.3798 68.5976 55.066 74.4628C47.4062 82.9179 45.9254 95.9433 46.9766 104.56C49.0881 119.252 54.7339 130.94 64.7033 141.384C65.1194 141.817 65.4442 142.329 65.6584 142.89C65.8726 143.451 65.9719 144.049 65.9503 144.649C65.9287 145.249 65.7867 145.839 65.5327 146.383C65.2787 146.927 64.9179 147.415 64.4717 147.816C63.6126 148.595 62.4961 149.029 61.3365 149.035V149.035Z" fill="#8D9DB9"/>
<path d="M113.496 135.946C103.594 135.946 95.1753 133.203 88.4387 127.753C74.9045 116.848 73.3871 99.0875 73.3201 98.338C73.2247 97.1077 73.622 95.8899 74.4245 94.9525C75.2271 94.0151 76.3691 93.435 77.5994 93.3396C78.8297 93.2443 80.0475 93.6415 80.9849 94.4441C81.9223 95.2466 82.5025 96.3886 82.5978 97.6189C82.6313 97.881 83.9841 112.408 94.4166 120.775C100.59 125.705 108.841 127.661 119.008 126.519C120.223 126.371 121.447 126.711 122.413 127.463C123.378 128.216 124.006 129.32 124.16 130.534C124.227 131.134 124.173 131.741 124.003 132.32C123.832 132.899 123.548 133.438 123.167 133.906C122.785 134.374 122.315 134.762 121.782 135.046C121.25 135.33 120.666 135.505 120.065 135.562C117.885 135.816 115.691 135.944 113.496 135.946V135.946Z" fill="#8D9DB9"/>
<path d="M121.32 14.8657C117.457 12.352 103.758 4.875 77.9999 4.875C50.9619 4.875 37.2297 13.1351 34.1919 15.2344C33.9913 15.3575 33.8035 15.5004 33.6313 15.6609C33.6132 15.6785 33.5895 15.6893 33.5643 15.6914C33.0792 16.1149 32.69 16.637 32.4225 17.2228C32.1551 17.8086 32.0157 18.4447 32.0134 19.0887C32.0218 19.6923 32.1491 20.2884 32.3882 20.8427C32.6273 21.397 32.9735 21.8987 33.4068 22.3191C33.8402 22.7394 34.3522 23.0701 34.9135 23.2921C35.4749 23.5142 36.0746 23.6234 36.6782 23.6133C37.6457 23.6126 38.5898 23.316 39.3838 22.7632C39.5148 22.6657 51.3337 13.9821 78.0091 13.9821C104.684 13.9821 116.567 22.6352 116.695 22.6992C117.506 23.3008 118.492 23.6216 119.501 23.6133C120.106 23.6225 120.706 23.5124 121.267 23.2892C121.828 23.066 122.34 22.7341 122.773 22.3126C123.206 21.891 123.551 21.3882 123.789 20.8328C124.027 20.2775 124.153 19.6806 124.16 19.0765C124.16 18.1715 123.89 17.2871 123.384 16.5368C122.878 15.7866 122.159 15.2046 121.32 14.8657V14.8657Z" fill="#8D9DB9"/>
</svg>
