<svg width="113" height="156" viewBox="0 0 113 156" fill="none" xmlns="http://www.w3.org/2000/svg">
<path d="M56.5 85.8C54.3498 85.7722 52.2435 86.4727 50.4647 87.807C48.6858 89.1413 47.3198 91.0454 46.5504 93.2631C45.7811 95.4808 45.6454 97.9055 46.1615 100.211C46.6777 102.516 47.821 104.592 49.4375 106.158V117C49.4375 119.069 50.1816 121.053 51.5061 122.515C52.8305 123.978 54.6269 124.8 56.5 124.8C58.3731 124.8 60.1695 123.978 61.4939 122.515C62.8184 121.053 63.5625 119.069 63.5625 117V106.158C65.179 104.592 66.3223 102.516 66.8385 100.211C67.3546 97.9055 67.2189 95.4808 66.4496 93.2631C65.6802 91.0454 64.3142 89.1413 62.5353 87.807C60.7565 86.4727 58.6502 85.7722 56.5 85.8ZM91.8125 54.6V39C91.8125 28.6566 88.0921 18.7368 81.4697 11.4228C74.8473 4.10892 65.8655 0 56.5 0C47.1345 0 38.1527 4.10892 31.5303 11.4228C24.9079 18.7368 21.1875 28.6566 21.1875 39V54.6C15.5682 54.6 10.1791 57.0653 6.20568 61.4537C2.23225 65.842 0 71.7939 0 78V132.6C0 138.806 2.23225 144.758 6.20568 149.146C10.1791 153.535 15.5682 156 21.1875 156H91.8125C97.4318 156 102.821 153.535 106.794 149.146C110.768 144.758 113 138.806 113 132.6V78C113 71.7939 110.768 65.842 106.794 61.4537C102.821 57.0653 97.4318 54.6 91.8125 54.6ZM35.3125 39C35.3125 32.7939 37.5447 26.8421 41.5182 22.4537C45.4916 18.0654 50.8807 15.6 56.5 15.6C62.1193 15.6 67.5084 18.0654 71.4818 22.4537C75.4553 26.8421 77.6875 32.7939 77.6875 39V54.6H35.3125V39ZM98.875 132.6C98.875 134.669 98.1309 136.653 96.8064 138.115C95.482 139.578 93.6856 140.4 91.8125 140.4H21.1875C19.3144 140.4 17.518 139.578 16.1936 138.115C14.8691 136.653 14.125 134.669 14.125 132.6V78C14.125 75.9313 14.8691 73.9474 16.1936 72.4846C17.518 71.0218 19.3144 70.2 21.1875 70.2H91.8125C93.6856 70.2 95.482 71.0218 96.8064 72.4846C98.1309 73.9474 98.875 75.9313 98.875 78V132.6Z" fill="#8D9DB9"/>
</svg>
