<svg width="23" height="24" viewBox="0 0 23 24" fill="none" xmlns="http://www.w3.org/2000/svg">
<path d="M12.5437 11.5023L16.6861 7.69141L3.30613 0.773294C2.41936 0.332535 1.58862 0.270674 0.860153 0.752674L12.5437 11.5023ZM17.3922 15.964L21.6986 13.7357C22.5391 13.3027 23 12.6893 23 12.0088C23 11.3296 22.5391 10.7149 21.7 10.2818L17.8013 8.26749L13.4122 12.3039L17.3922 15.964ZM0.14009 1.68961C0.0504323 1.9435 0 2.22703 0 2.53762V21.489C0 21.98 0.117676 22.4027 0.330613 22.7391L11.6737 12.3026L0.14009 1.68961ZM12.5437 13.1017L1.26361 23.4801C1.47935 23.5562 1.7119 23.5961 1.95706 23.5961C2.39414 23.5961 2.84943 23.4775 3.31313 23.2404L16.2785 16.5427L12.5437 13.1017Z" fill="white"/>
</svg>
